{
  "accessors": [
    {
      "bufferView": 2,
      "componentType": 5126,
      "count": 65532,
      "max": [
        0.43094301223754883,
        0.035861000418663025,
        0.41653400659561157
      ],
      "min": [
        0.07965000718832016,
        -0.02327200025320053,
        0.05608000606298447
      ],
      "type": "VEC3"
    },
    {
      "bufferView": 2,
      "byteOffset": 786384,
      "componentType": 5126,
      "count": 65532,
      "max": [
        0.9999116063117981,
        1.0,
        0.9989978075027466
      ],
      "min": [
        -1.0,
        -1.0,
        -0.9445664882659912
      ],
      "type": "VEC3"
    },
    {
      "bufferView": 3,
      "componentType": 5126,
      "count": 65532,
      "max": [
        0.9999970197677612,
        1.0,
        0.9995696544647217,
        1.0
      ],
      "min": [
        -0.9998999834060669,
        -0.9999982118606567,
        -0.9997769594192505,
        -1.0
      ],
      "type": "VEC4"
    },
    {
      "bufferView": 1,
      "componentType": 5126,
      "count": 65532,
      "max": [
        0.9969919919967651,
        0.9981930255889893
      ],
      "min": [
        0.0006019999855197966,
        0.0006020069122314453
      ],
      "type": "VEC2"
    },
    {
      "bufferView": 1,
      "byteOffset": 524256,
      "componentType": 5126,
      "count": 65532,
      "max": [
        0.9969919919967651,
        0.9981930255889893
      ],
      "min": [
        0.0006019999855197966,
        0.0006020069122314453
      ],
      "type": "VEC2"
    },
    {
      "bufferView": 1,
      "byteOffset": 1048512,
      "componentType": 5126,
      "count": 65532,
      "max": [
        0.9969919919967651,
        0.9981930255889893
      ],
      "min": [
        0.0006019999855197966,
        0.0006020069122314453
      ],
      "type": "VEC2"
    },
    {
      "bufferView": 0,
      "componentType": 5125,
      "count": 331419,
      "type": "SCALAR"
    },
    {
      "bufferView": 2,
      "byteOffset": 1572768,
      "componentType": 5126,
      "count": 65532,
      "max": [
        0.2316340208053589,
        0.03357400372624397,
        0.23850701749324799
      ],
      "min": [
        -0.15142300724983215,
        -0.03175600245594978,
        -0.21288801729679108
      ],
      "type": "VEC3"
    },
    {
      "bufferView": 2,
      "byteOffset": 2359152,
      "componentType": 5126,
      "count": 65532,
      "max": [
        1.0,
        0.9999998807907104,
        1.0
      ],
      "min": [
        -0.9971493482589722,
        -0.9999973177909851,
        -1.0
      ],
      "type": "VEC3"
    },
    {
      "bufferView": 3,
      "byteOffset": 1048512,
      "componentType": 5126,
      "count": 65532,
      "max": [
        0.9999545812606812,
        0.9999954104423523,
        1.0,
        1.0
      ],
      "min": [
        -0.9999986886978149,
        -0.9999276995658875,
        -0.9999732375144958,
        -1.0
      ],
      "type": "VEC4"
    },
    {
      "bufferView": 1,
      "byteOffset": 1572768,
      "componentType": 5126,
      "count": 65532,
      "max": [
        0.9969919919967651,
        0.9981930255889893
      ],
      "min": [
        0.0006019999855197966,
        0.0006020069122314453
      ],
      "type": "VEC2"
    },
    {
      "bufferView": 1,
      "byteOffset": 2097024,
      "componentType": 5126,
      "count": 65532,
      "max": [
        0.9969919919967651,
        0.9981930255889893
      ],
      "min": [
        0.0006019999855197966,
        0.0006020069122314453
      ],
      "type": "VEC2"
    },
    {
      "bufferView": 1,
      "byteOffset": 2621280,
      "componentType": 5126,
      "count": 65532,
      "max": [
        0.9969919919967651,
        0.9981930255889893
      ],
      "min": [
        0.0006019999855197966,
        0.0006020069122314453
      ],
      "type": "VEC2"
    },
    {
      "bufferView": 0,
      "byteOffset": 1325676,
      "componentType": 5125,
      "count": 327504,
      "type": "SCALAR"
    },
    {
      "bufferView": 2,
      "byteOffset": 3145536,
      "componentType": 5126,
      "count": 65532,
      "max": [
        -9.40000027185306e-05,
        0.03945999965071678,
        0.06337400525808334
      ],
      "min": [
        -0.40313202142715454,
        -0.04026490077376366,
        -0.3847000300884247
      ],
      "type": "VEC3"
    },
    {
      "bufferView": 2,
      "byteOffset": 3931920,
      "componentType": 5126,
      "count": 65532,
      "max": [
        0.983959972858429,
        1.0,
        1.0
      ],
      "min": [
        -1.0,
        -1.0,
        -1.0
      ],
      "type": "VEC3"
    },
    {
      "bufferView": 3,
      "byteOffset": 2097024,
      "componentType": 5126,
      "count": 65532,
      "max": [
        0.9999852776527405,
        1.0,
        1.0,
        1.0
      ],
      "min": [
        -0.9999992251396179,
        -0.9999260306358337,
        -1.0,
        -1.0
      ],
      "type": "VEC4"
    },
    {
      "bufferView": 1,
      "byteOffset": 3145536,
      "componentType": 5126,
      "count": 65532,
      "max": [
        0.9993979930877686,
        0.9993979930877686
      ],
      "min": [
        0.0006019999855197966,
        0.0006020069122314453
      ],
      "type": "VEC2"
    },
    {
      "bufferView": 1,
      "byteOffset": 3669792,
      "componentType": 5126,
      "count": 65532,
      "max": [
        0.9993979930877686,
        0.9993979930877686
      ],
      "min": [
        0.0006019999855197966,
        0.0006020069122314453
      ],
      "type": "VEC2"
    },
    {
      "bufferView": 1,
      "byteOffset": 4194048,
      "componentType": 5126,
      "count": 65532,
      "max": [
        0.9993979930877686,
        0.9993979930877686
      ],
      "min": [
        0.0006019999855197966,
        0.0006020069122314453
      ],
      "type": "VEC2"
    },
    {
      "bufferView": 0,
      "byteOffset": 2635692,
      "componentType": 5125,
      "count": 320727,
      "type": "SCALAR"
    },
    {
      "bufferView": 2,
      "byteOffset": 4718304,
      "componentType": 5126,
      "count": 65532,
      "max": [
        -0.13150900602340698,
        0.044950004667043686,
        0.0059899999760091305
      ],
      "min": [
        -0.43094301223754883,
        -0.041120998561382294,
        -0.4180610179901123
      ],
      "type": "VEC3"
    },
    {
      "bufferView": 2,
      "byteOffset": 5504688,
      "componentType": 5126,
      "count": 65532,
      "max": [
        1.0,
        1.0,
        1.0
      ],
      "min": [
        -1.0,
        -1.0,
        -1.0
      ],
      "type": "VEC3"
    },
    {
      "bufferView": 3,
      "byteOffset": 3145536,
      "componentType": 5126,
      "count": 65532,
      "max": [
        0.999999463558197,
        0.9999819993972778,
        0.9999995231628418,
        1.0
      ],
      "min": [
        -0.9999493360519409,
        -0.9999778270721436,
        -1.0,
        -1.0
      ],
      "type": "VEC4"
    },
    {
      "bufferView": 1,
      "byteOffset": 4718304,
      "componentType": 5126,
      "count": 65532,
      "max": [
        0.9993979930877686,
        0.9993979930877686
      ],
      "min": [
        0.0006019999855197966,
        0.0006020069122314453
      ],
      "type": "VEC2"
    },
    {
      "bufferView": 1,
      "byteOffset": 5242560,
      "componentType": 5126,
      "count": 65532,
      "max": [
        0.9993979930877686,
        0.9993979930877686
      ],
      "min": [
        0.0006019999855197966,
        0.0006020069122314453
      ],
      "type": "VEC2"
    },
    {
      "bufferView": 1,
      "byteOffset": 5766816,
      "componentType": 5126,
      "count": 65532,
      "max": [
        0.9993979930877686,
        0.9993979930877686
      ],
      "min": [
        0.0006019999855197966,
        0.0006020069122314453
      ],
      "type": "VEC2"
    },
    {
      "bufferView": 0,
      "byteOffset": 3918600,
      "componentType": 5125,
      "count": 316410,
      "type": "SCALAR"
    },
    {
      "bufferView": 2,
      "byteOffset": 6291072,
      "componentType": 5126,
      "count": 43439,
      "max": [
        -0.0011109999613836408,
        0.04463900253176689,
        0.07874700427055359
      ],
      "min": [
        -0.22776101529598236,
        -0.041579000651836395,
        -0.29393401741981506
      ],
      "type": "VEC3"
    },
    {
      "bufferView": 2,
      "byteOffset": 6812340,
      "componentType": 5126,
      "count": 43439,
      "max": [
        1.0,
        1.0,
        1.0
      ],
      "min": [
        -1.0,
        -1.0,
        -1.0
      ],
      "type": "VEC3"
    },
    {
      "bufferView": 3,
      "byteOffset": 4194048,
      "componentType": 5126,
      "count": 43439,
      "max": [
        0.9999593496322632,
        1.0,
        0.9995955228805542,
        1.0
      ],
      "min": [
        -1.0,
        -1.0,
        -0.9996255040168762,
        -1.0
      ],
      "type": "VEC4"
    },
    {
      "bufferView": 1,
      "byteOffset": 6291072,
      "componentType": 5126,
      "count": 43439,
      "max": [
        0.9969919919967651,
        0.9981930255889893
      ],
      "min": [
        0.0006019999855197966,
        0.0006020069122314453
      ],
      "type": "VEC2"
    },
    {
      "bufferView": 1,
      "byteOffset": 6638584,
      "componentType": 5126,
      "count": 43439,
      "max": [
        0.9969919919967651,
        0.9981930255889893
      ],
      "min": [
        0.0006019999855197966,
        0.0006020069122314453
      ],
      "type": "VEC2"
    },
    {
      "bufferView": 1,
      "byteOffset": 6986096,
      "componentType": 5126,
      "count": 43439,
      "max": [
        0.9969919919967651,
        0.9981930255889893
      ],
      "min": [
        0.0006019999855197966,
        0.0006020069122314453
      ],
      "type": "VEC2"
    },
    {
      "bufferView": 0,
      "byteOffset": 5184240,
      "componentType": 5125,
      "count": 203940,
      "type": "SCALAR"
    }
  ],
  "asset": {
    "extras": {
      "author": "SinisterClock (https://sketchfab.com/multi_2024)",
      "license": "CC-BY-4.0 (http://creativecommons.org/licenses/by/4.0/)",
      "source": "https://sketchfab.com/3d-models/my-personal-sword-astral-sword-dom-studio-761afbc69a2844719477be3b9b961fe3",
      "title": "My personal sword / astral sword  (Dom Studio)"
    },
    "generator": "Sketchfab-16.73.0",
    "version": "2.0"
  },
  "bufferViews": [
    {
      "buffer": 0,
      "byteLength": 6000000,
      "name": "floatBufferViews",
      "target": 34963
    },
    {
      "buffer": 0,
      "byteLength": 7333608,
      "byteOffset": 6000000,
      "byteStride": 8,
      "name": "floatBufferViews",
      "target": 34962
    },
    {
      "buffer": 0,
      "byteLength": 7333608,
      "byteOffset": 13333608,
      "byteStride": 12,
      "name": "floatBufferViews",
      "target": 34962
    },
    {
      "buffer": 0,
      "byteLength": 4889072,
      "byteOffset": 20667216,
      "byteStride": 16,
      "name": "floatBufferViews",
      "target": 34962
    }
  ],
  "buffers": [
    {
      "byteLength": 25556288,
      "uri": "scene.bin"
    }
  ],
  "extensionsUsed": [
    "KHR_materials_specular"
  ],
  "images": [
    {
      "uri": "textures/material_0_baseColor.png"
    },
    {
      "uri": "textures/material_0_metallicRoughness.png"
    },
    {
      "uri": "textures/material_0_normal.png"
    },
    {
      "uri": "textures/material_0_specularf0.png"
    }
  ],
  "materials": [
    {
      "alphaMode": "BLEND",
      "extensions": {
        "KHR_materials_specular": {
          "specularColorFactor": [
            1.0,
            1.0,
            1.0
          ],
          "specularFactor": 1.0,
          "specularTexture": {
            "index": 3,
            "texCoord": 2
          }
        }
      },
      "name": "material_0",
      "normalTexture": {
        "index": 2
      },
      "pbrMetallicRoughness": {
        "baseColorFactor": [
          1.0,
          1.0,
          1.0,
          0.9254185692541856
        ],
        "baseColorTexture": {
          "index": 0
        },
        "metallicRoughnessTexture": {
          "index": 1,
          "texCoord": 1
        }
      }
    }
  ],
  "meshes": [
    {
      "name": "Object_0",
      "primitives": [
        {
          "attributes": {
            "NORMAL": 1,
            "POSITION": 0,
            "TANGENT": 2,
            "TEXCOORD_0": 3,
            "TEXCOORD_1": 4,
            "TEXCOORD_2": 5
          },
          "indices": 6,
          "material": 0,
          "mode": 4
        }
      ]
    },
    {
      "name": "Object_1",
      "primitives": [
        {
          "attributes": {
            "NORMAL": 8,
            "POSITION": 7,
            "TANGENT": 9,
            "TEXCOORD_0": 10,
            "TEXCOORD_1": 11,
            "TEXCOORD_2": 12
          },
          "indices": 13,
          "material": 0,
          "mode": 4
        }
      ]
    },
    {
      "name": "Object_2",
      "primitives": [
        {
          "attributes": {
            "NORMAL": 15,
            "POSITION": 14,
            "TANGENT": 16,
            "TEXCOORD_0": 17,
            "TEXCOORD_1": 18,
            "TEXCOORD_2": 19
          },
          "indices": 20,
          "material": 0,
          "mode": 4
        }
      ]
    },
    {
      "name": "Object_3",
      "primitives": [
        {
          "attributes": {
            "NORMAL": 22,
            "POSITION": 21,
            "TANGENT": 23,
            "TEXCOORD_0": 24,
            "TEXCOORD_1": 25,
            "TEXCOORD_2": 26
          },
          "indices": 27,
          "material": 0,
          "mode": 4
        }
      ]
    },
    {
      "name": "Object_4",
      "primitives": [
        {
          "attributes": {
            "NORMAL": 29,
            "POSITION": 28,
            "TANGENT": 30,
            "TEXCOORD_0": 31,
            "TEXCOORD_1": 32,
            "TEXCOORD_2": 33
          },
          "indices": 34,
          "material": 0,
          "mode": 4
        }
      ]
    }
  ],
  "nodes": [
    {
      "children": [
        1
      ],
      "matrix": [
        1.0,
        0.0,
        0.0,
        0.0,
        0.0,
        2.220446049250313e-16,
        -1.0,
        0.0,
        0.0,
        1.0,
        2.220446049250313e-16,
        0.0,
        0.0,
        0.0,
        0.0,
        1.0
      ],
      "name": "Sketchfab_model"
    },
    {
      "children": [
        2
      ],
      "name": "root"
    },
    {
      "children": [
        3
      ],
      "matrix": [
        1.0,
        0.0,
        0.0,
        0.0,
        0.0,
        2.220446049250313e-16,
        1.0,
        0.0,
        0.0,
        -1.0,
        2.220446049250313e-16,
        0.0,
        0.0,
        0.0,
        0.0,
        1.0
      ],
      "name": "GLTF_SceneRootNode"
    },
    {
      "children": [
        4,
        5,
        6,
        7,
        8
      ],
      "matrix": [
        1.071660041809082,
        -3.0273334464530222e-15,
        -2.9519195976490664e-08,
        0.0,
        -1.9503900716699718e-08,
        -9.374848275456316e-08,
        -0.9999998211860657,
        0.0,
        0.12754599750041962,
        1.0533599853515625,
        -1.0917211312744257e-07,
        0.0,
        0.08093920350074768,
        0.417697936296463,
        0.0016854899004101753,
        1.0
      ],
      "name": "_0"
    },
    {
      "mesh": 0,
      "name": "Object_4"
    },
    {
      "mesh": 1,
      "name": "Object_5"
    },
    {
      "mesh": 2,
      "name": "Object_6"
    },
    {
      "mesh": 3,
      "name": "Object_7"
    },
    {
      "mesh": 4,
      "name": "Object_8"
    }
  ],
  "samplers": [
    {
      "magFilter": 9729,
      "minFilter": 9729,
      "wrapS": 10497,
      "wrapT": 10497
    },
    {
      "magFilter": 9729,
      "minFilter": 9987,
      "wrapS": 10497,
      "wrapT": 10497
    }
  ],
  "scene": 0,
  "scenes": [
    {
      "name": "Sketchfab_Scene",
      "nodes": [
        0
      ]
    }
  ],
  "textures": [
    {
      "sampler": 0,
      "source": 0
    },
    {
      "sampler": 0,
      "source": 1
    },
    {
      "sampler": 1,
      "source": 2
    },
    {
      "sampler": 1,
      "source": 3
    }
  ]
}
