{
  "accessors": [
    {
      "bufferView": 2,
      "componentType": 5126,
      "count": 445,
      "max": [
        1.977933645248413,
        0.18107405304908752,
        6.298647880554199
      ],
      "min": [
        -1.9779337644577026,
        -0.18107405304908752,
        -0.19070065021514893
      ],
      "type": "VEC3"
    },
    {
      "bufferView": 2,
      "byteOffset": 5340,
      "componentType": 5126,
      "count": 445,
      "max": [
        1.0,
        1.0,
        0.7047411203384399
      ],
      "min": [
        -1.0,
        -1.0,
        -0.8853785395622253
      ],
      "type": "VEC3"
    },
    {
      "bufferView": 3,
      "componentType": 5126,
      "count": 445,
      "max": [
        1.0,
        1.0,
        0.6569063067436218,
        1.0
      ],
      "min": [
        -1.0,
        -1.0,
        -0.6391555070877075,
        1.0
      ],
      "type": "VEC4"
    },
    {
      "bufferView": 1,
      "componentType": 5126,
      "count": 445,
      "max": [
        0.9326784610748291,
        0.9380905032157898
      ],
      "min": [
        0.192002534866333,
        0.0830925777554512
      ],
      "type": "VEC2"
    },
    {
      "bufferView": 1,
      "byteOffset": 3560,
      "componentType": 5126,
      "count": 445,
      "max": [
        0.9326784610748291,
        0.9380905032157898
      ],
      "min": [
        0.192002534866333,
        0.0830925777554512
      ],
      "type": "VEC2"
    },
    {
      "bufferView": 0,
      "componentType": 5125,
      "count": 1116,
      "type": "SCALAR"
    },
    {
      "bufferView": 2,
      "byteOffset": 10680,
      "componentType": 5126,
      "count": 408,
      "max": [
        2.0096702575683594,
        0.17088766396045685,
        1.9105652570724487
      ],
      "min": [
        -2.0096702575683594,
        -0.17088766396045685,
        -6.298647403717041
      ],
      "type": "VEC3"
    },
    {
      "bufferView": 2,
      "byteOffset": 15576,
      "componentType": 5126,
      "count": 408,
      "max": [
        1.0,
        1.0,
        0.8912340998649597
      ],
      "min": [
        -1.0,
        -1.0,
        -0.7169689536094666
      ],
      "type": "VEC3"
    },
    {
      "bufferView": 3,
      "byteOffset": 7120,
      "componentType": 5126,
      "count": 408,
      "max": [
        0.9999975562095642,
        0.999843955039978,
        0.6644213199615479,
        1.0
      ],
      "min": [
        -0.999998152256012,
        -0.9996695518493652,
        -0.6519454121589661,
        1.0
      ],
      "type": "VEC4"
    },
    {
      "bufferView": 1,
      "byteOffset": 7120,
      "componentType": 5126,
      "count": 408,
      "max": [
        0.9994272589683533,
        0.9958192110061646
      ],
      "min": [
        0.0016653058119118214,
        0.0016152200987562537
      ],
      "type": "VEC2"
    },
    {
      "bufferView": 1,
      "byteOffset": 10384,
      "componentType": 5126,
      "count": 408,
      "max": [
        0.9994272589683533,
        0.9958192110061646
      ],
      "min": [
        0.0016653058119118214,
        0.0016152200987562537
      ],
      "type": "VEC2"
    },
    {
      "bufferView": 0,
      "byteOffset": 4464,
      "componentType": 5125,
      "count": 876,
      "type": "SCALAR"
    },
    {
      "bufferView": 2,
      "byteOffset": 20472,
      "componentType": 5126,
      "count": 926,
      "max": [
        0.3429870009422302,
        0.25890859961509705,
        2.4495725631713867
      ],
      "min": [
        -0.3429870009422302,
        -0.25890859961509705,
        -2.4495725631713867
      ],
      "type": "VEC3"
    },
    {
      "bufferView": 2,
      "byteOffset": 31584,
      "componentType": 5126,
      "count": 926,
      "max": [
        0.9828888773918152,
        1.0,
        1.0
      ],
      "min": [
        -0.9828888773918152,
        -1.0,
        -1.0
      ],
      "type": "VEC3"
    },
    {
      "bufferView": 3,
      "byteOffset": 13648,
      "componentType": 5126,
      "count": 926,
      "max": [
        1.0,
        1.0,
        1.0,
        1.0
      ],
      "min": [
        -0.9999998807907104,
        -0.998109757900238,
        -1.0,
        1.0
      ],
      "type": "VEC4"
    },
    {
      "bufferView": 1,
      "byteOffset": 13648,
      "componentType": 5126,
      "count": 926,
      "max": [
        0.9940151572227478,
        0.9958191514015198
      ],
      "min": [
        0.0011623443569988012,
        0.0008617665152996778
      ],
      "type": "VEC2"
    },
    {
      "bufferView": 1,
      "byteOffset": 21056,
      "componentType": 5126,
      "count": 926,
      "max": [
        0.9940151572227478,
        0.9958191514015198
      ],
      "min": [
        0.0011623443569988012,
        0.0008617665152996778
      ],
      "type": "VEC2"
    },
    {
      "bufferView": 0,
      "byteOffset": 7968,
      "componentType": 5125,
      "count": 3252,
      "type": "SCALAR"
    },
    {
      "bufferView": 2,
      "byteOffset": 42696,
      "componentType": 5126,
      "count": 668,
      "max": [
        1.68048095703125,
        0.2788263261318207,
        1.3267734050750732
      ],
      "min": [
        -1.68048095703125,
        -0.2788263261318207,
        -1.3267732858657837
      ],
      "type": "VEC3"
    },
    {
      "bufferView": 2,
      "byteOffset": 50712,
      "componentType": 5126,
      "count": 668,
      "max": [
        0.9999780058860779,
        1.0,
        1.0
      ],
      "min": [
        -0.9999780654907227,
        -1.0,
        -1.0
      ],
      "type": "VEC3"
    },
    {
      "bufferView": 3,
      "byteOffset": 28464,
      "componentType": 5126,
      "count": 668,
      "max": [
        0.9999173283576965,
        1.0,
        0.9999347925186157,
        1.0
      ],
      "min": [
        -0.9999173283576965,
        -1.0,
        -0.9976721405982971,
        -1.0
      ],
      "type": "VEC4"
    },
    {
      "bufferView": 1,
      "byteOffset": 28464,
      "componentType": 5126,
      "count": 668,
      "max": [
        0.9272664189338684,
        0.9813870191574097
      ],
      "min": [
        0.06264358758926392,
        0.0006378662073984742
      ],
      "type": "VEC2"
    },
    {
      "bufferView": 1,
      "byteOffset": 33808,
      "componentType": 5126,
      "count": 668,
      "max": [
        0.9272664189338684,
        0.9813870191574097
      ],
      "min": [
        0.06264358758926392,
        0.0006378662073984742
      ],
      "type": "VEC2"
    },
    {
      "bufferView": 0,
      "byteOffset": 20976,
      "componentType": 5125,
      "count": 1176,
      "type": "SCALAR"
    },
    {
      "bufferView": 2,
      "byteOffset": 58728,
      "componentType": 5126,
      "count": 736,
      "max": [
        2.0096702575683594,
        0.18107405304908752,
        6.298647880554199
      ],
      "min": [
        -2.0096702575683594,
        -0.18107405304908752,
        -6.298647403717041
      ],
      "type": "VEC3"
    },
    {
      "bufferView": 2,
      "byteOffset": 67560,
      "componentType": 5126,
      "count": 736,
      "max": [
        1.0,
        1.0,
        0.7169696688652039
      ],
      "min": [
        -1.0,
        -1.0,
        -0.7169689536094666
      ],
      "type": "VEC3"
    },
    {
      "bufferView": 3,
      "byteOffset": 39152,
      "componentType": 5126,
      "count": 736,
      "max": [
        1.0,
        1.0,
        0.6644213199615479,
        1.0
      ],
      "min": [
        -1.0,
        -1.0,
        -0.6519454121589661,
        1.0
      ],
      "type": "VEC4"
    },
    {
      "bufferView": 1,
      "byteOffset": 39152,
      "componentType": 5126,
      "count": 736,
      "max": [
        0.7955729365348816,
        0.6710955500602722
      ],
      "min": [
        0.001213942072354257,
        0.0006349057075567544
      ],
      "type": "VEC2"
    },
    {
      "bufferView": 1,
      "byteOffset": 45040,
      "componentType": 5126,
      "count": 736,
      "max": [
        0.7955729365348816,
        0.6710955500602722
      ],
      "min": [
        0.001213942072354257,
        0.0006349057075567544
      ],
      "type": "VEC2"
    },
    {
      "bufferView": 0,
      "byteOffset": 25680,
      "componentType": 5125,
      "count": 1752,
      "type": "SCALAR"
    },
    {
      "bufferView": 2,
      "byteOffset": 76392,
      "componentType": 5126,
      "count": 926,
      "max": [
        0.3429870009422302,
        0.25890859961509705,
        2.4495725631713867
      ],
      "min": [
        -0.3429870009422302,
        -0.25890859961509705,
        -2.4495725631713867
      ],
      "type": "VEC3"
    },
    {
      "bufferView": 2,
      "byteOffset": 87504,
      "componentType": 5126,
      "count": 926,
      "max": [
        0.9828888773918152,
        1.0,
        1.0
      ],
      "min": [
        -0.9828888773918152,
        -1.0,
        -1.0
      ],
      "type": "VEC3"
    },
    {
      "bufferView": 3,
      "byteOffset": 50928,
      "componentType": 5126,
      "count": 926,
      "max": [
        1.0,
        1.0,
        1.0,
        1.0
      ],
      "min": [
        -0.9999998807907104,
        -0.998109757900238,
        -1.0,
        1.0
      ],
      "type": "VEC4"
    },
    {
      "bufferView": 1,
      "byteOffset": 50928,
      "componentType": 5126,
      "count": 926,
      "max": [
        0.9940151572227478,
        0.9958191514015198
      ],
      "min": [
        0.0011623443569988012,
        0.0008617665152996778
      ],
      "type": "VEC2"
    },
    {
      "bufferView": 1,
      "byteOffset": 58336,
      "componentType": 5126,
      "count": 926,
      "max": [
        0.9940151572227478,
        0.9958191514015198
      ],
      "min": [
        0.0011623443569988012,
        0.0008617665152996778
      ],
      "type": "VEC2"
    },
    {
      "bufferView": 0,
      "byteOffset": 32688,
      "componentType": 5125,
      "count": 3252,
      "type": "SCALAR"
    },
    {
      "bufferView": 2,
      "byteOffset": 98616,
      "componentType": 5126,
      "count": 668,
      "max": [
        1.68048095703125,
        0.2788263261318207,
        1.3267734050750732
      ],
      "min": [
        -1.68048095703125,
        -0.2788263261318207,
        -1.3267732858657837
      ],
      "type": "VEC3"
    },
    {
      "bufferView": 2,
      "byteOffset": 106632,
      "componentType": 5126,
      "count": 668,
      "max": [
        0.9999780058860779,
        1.0,
        1.0
      ],
      "min": [
        -0.9999780654907227,
        -1.0,
        -1.0
      ],
      "type": "VEC3"
    },
    {
      "bufferView": 3,
      "byteOffset": 65744,
      "componentType": 5126,
      "count": 668,
      "max": [
        0.9999173283576965,
        1.0,
        0.9999347925186157,
        1.0
      ],
      "min": [
        -0.9999173283576965,
        -1.0,
        -0.9976721405982971,
        -1.0
      ],
      "type": "VEC4"
    },
    {
      "bufferView": 1,
      "byteOffset": 65744,
      "componentType": 5126,
      "count": 668,
      "max": [
        0.9272664189338684,
        0.9813870191574097
      ],
      "min": [
        0.06264358758926392,
        0.0006378662073984742
      ],
      "type": "VEC2"
    },
    {
      "bufferView": 1,
      "byteOffset": 71088,
      "componentType": 5126,
      "count": 668,
      "max": [
        0.9272664189338684,
        0.9813870191574097
      ],
      "min": [
        0.06264358758926392,
        0.0006378662073984742
      ],
      "type": "VEC2"
    },
    {
      "bufferView": 0,
      "byteOffset": 45696,
      "componentType": 5125,
      "count": 1176,
      "type": "SCALAR"
    }
  ],
  "asset": {
    "extras": {
      "author": "Bit_1001 (https://sketchfab.com/shandodome)",
      "license": "CC-BY-4.0 (http://creativecommons.org/licenses/by/4.0/)",
      "source": "https://sketchfab.com/3d-models/sword-blade-bd6956345dc14a509f435d3203da9e78",
      "title": "Sword Blade"
    },
    "generator": "Sketchfab-16.72.0",
    "version": "2.0"
  },
  "bufferViews": [
    {
      "buffer": 0,
      "byteLength": 50400,
      "name": "floatBufferViews",
      "target": 34963
    },
    {
      "buffer": 0,
      "byteLength": 76432,
      "byteOffset": 50400,
      "byteStride": 8,
      "name": "floatBufferViews",
      "target": 34962
    },
    {
      "buffer": 0,
      "byteLength": 114648,
      "byteOffset": 126832,
      "byteStride": 12,
      "name": "floatBufferViews",
      "target": 34962
    },
    {
      "buffer": 0,
      "byteLength": 76432,
      "byteOffset": 241480,
      "byteStride": 16,
      "name": "floatBufferViews",
      "target": 34962
    }
  ],
  "buffers": [
    {
      "byteLength": 317912,
      "uri": "scene.bin"
    }
  ],
  "extensionsUsed": [
    "KHR_materials_emissive_strength",
    "KHR_materials_specular"
  ],
  "images": [
    {
      "uri": "textures/Sword_baseColor.png"
    },
    {
      "uri": "textures/Sword_metallicRoughness.png"
    },
    {
      "uri": "textures/Sword_emissive.png"
    },
    {
      "uri": "textures/Sword_normal.png"
    }
  ],
  "materials": [
    {
      "doubleSided": true,
      "emissiveFactor": [
        1.0,
        1.0,
        1.0
      ],
      "emissiveTexture": {
        "index": 2
      },
      "extensions": {
        "KHR_materials_emissive_strength": {
          "emissiveStrength": 4.49525179505309
        },
        "KHR_materials_specular": {
          "specularColorFactor": [
            1.0,
            1.0,
            1.0
          ],
          "specularFactor": 1.0
        }
      },
      "name": "Sword",
      "normalTexture": {
        "index": 3
      },
      "pbrMetallicRoughness": {
        "baseColorTexture": {
          "index": 0
        },
        "metallicRoughnessTexture": {
          "index": 1
        }
      }
    }
  ],
  "meshes": [
    {
      "name": "Blade_Sword_0",
      "primitives": [
        {
          "attributes": {
            "NORMAL": 1,
            "POSITION": 0,
            "TANGENT": 2,
            "TEXCOORD_0": 3,
            "TEXCOORD_1": 4
          },
          "indices": 5,
          "material": 0,
          "mode": 4
        }
      ]
    },
    {
      "name": "Blade.001_Sword_0",
      "primitives": [
        {
          "attributes": {
            "NORMAL": 7,
            "POSITION": 6,
            "TANGENT": 8,
            "TEXCOORD_0": 9,
            "TEXCOORD_1": 10
          },
          "indices": 11,
          "material": 0,
          "mode": 4
        }
      ]
    },
    {
      "name": "Cable_Sword_0",
      "primitives": [
        {
          "attributes": {
            "NORMAL": 13,
            "POSITION": 12,
            "TANGENT": 14,
            "TEXCOORD_0": 15,
            "TEXCOORD_1": 16
          },
          "indices": 17,
          "material": 0,
          "mode": 4
        }
      ]
    },
    {
      "name": "Strap_Sword_0",
      "primitives": [
        {
          "attributes": {
            "NORMAL": 19,
            "POSITION": 18,
            "TANGENT": 20,
            "TEXCOORD_0": 21,
            "TEXCOORD_1": 22
          },
          "indices": 23,
          "material": 0,
          "mode": 4
        }
      ]
    },
    {
      "name": "Blade.002_Sword_0",
      "primitives": [
        {
          "attributes": {
            "NORMAL": 25,
            "POSITION": 24,
            "TANGENT": 26,
            "TEXCOORD_0": 27,
            "TEXCOORD_1": 28
          },
          "indices": 29,
          "material": 0,
          "mode": 4
        }
      ]
    },
    {
      "name": "Cable.001_Sword_0",
      "primitives": [
        {
          "attributes": {
            "NORMAL": 31,
            "POSITION": 30,
            "TANGENT": 32,
            "TEXCOORD_0": 33,
            "TEXCOORD_1": 34
          },
          "indices": 35,
          "material": 0,
          "mode": 4
        }
      ]
    },
    {
      "name": "Strap.001_Sword_0",
      "primitives": [
        {
          "attributes": {
            "NORMAL": 37,
            "POSITION": 36,
            "TANGENT": 38,
            "TEXCOORD_0": 39,
            "TEXCOORD_1": 40
          },
          "indices": 41,
          "material": 0,
          "mode": 4
        }
      ]
    }
  ],
  "nodes": [
    {
      "children": [
        1
      ],
      "matrix": [
        1.0,
        0.0,
        0.0,
        0.0,
        0.0,
        2.220446049250313e-16,
        -1.0,
        0.0,
        0.0,
        1.0,
        2.220446049250313e-16,
        0.0,
        0.0,
        0.0,
        0.0,
        1.0
      ],
      "name": "Sketchfab_model"
    },
    {
      "children": [
        2
      ],
      "matrix": [
        0.009999999776482582,
        0.0,
        0.0,
        0.0,
        0.0,
        0.0,
        0.009999999776482582,
        0.0,
        0.0,
        -0.009999999776482582,
        0.0,
        0.0,
        0.0,
        0.0,
        0.0,
        1.0
      ],
      "name": "6ca341ae39314658806a2a8cd2371e59.fbx"
    },
    {
      "children": [
        3,
        6,
        8,
        17
      ],
      "name": "RootNode"
    },
    {
      "children": [
        4
      ],
      "matrix": [
        3073.26611328125,
        0.0,
        0.0,
        0.0,
        0.0,
        3073.266113281241,
        -0.00023202516341550703,
        0.0,
        0.0,
        0.00023202516341550703,
        3073.266113281241,
        0.0,
        388.5098571777344,
        2183.54736328125,
        0.0,
        1.0
      ],
      "name": "Area"
    },
    {
      "children": [
        5
      ],
      "matrix": [
        1.0,
        0.0,
        0.0,
        0.0,
        0.0,
        2.220446049250313e-16,
        1.0,
        0.0,
        0.0,
        -1.0,
        2.220446049250313e-16,
        0.0,
        0.0,
        0.0,
        0.0,
        1.0
      ],
      "name": "Object_4"
    },
    {
      "name": "Object_5"
    },
    {
      "children": [
        7
      ],
      "matrix": [
        85.62978299677643,
        2.8631568915485186,
        -3467.6729212225046,
        0.0,
        28.842778549384345,
        3468.6089522625784,
        3.5761655656939757,
        0.0,
        3467.55317333,
        -28.922256724238366,
        85.602945706518,
        0.0,
        483.5115051269531,
        947.421142578125,
        6409.02099609375,
        1.0
      ],
      "name": "Camera"
    },
    {
      "name": "Object_7"
    },
    {
      "children": [
        9,
        11,
        13,
        15
      ],
      "matrix": [
        100.0,
        0.0,
        0.0,
        0.0,
        0.0,
        -1.629206793918314e-05,
        -99.99999999999868,
        0.0,
        0.0,
        99.99999999999868,
        -1.629206793918314e-05,
        0.0,
        833.76416015625,
        1624.114013671875,
        0.0,
        1.0
      ],
      "name": "broken sword"
    },
    {
      "children": [
        10
      ],
      "matrix": [
        1.0,
        0.0,
        0.0,
        0.0,
        0.0,
        1.0,
        -2.646977960169688e-23,
        0.0,
        0.0,
        2.646977960169688e-23,
        1.0,
        0.0,
        9.5367431640625e-07,
        0.0,
        -9.24856948852539,
        1.0
      ],
      "name": "Blade"
    },
    {
      "mesh": 0,
      "name": "Blade_Sword_0"
    },
    {
      "children": [
        12
      ],
      "matrix": [
        1.0,
        0.0,
        0.0,
        0.0,
        0.0,
        1.0,
        -2.646977960169688e-23,
        0.0,
        0.0,
        2.646977960169688e-23,
        1.0,
        0.0,
        0.0011262893676757813,
        0.0,
        -9.24856948852539,
        1.0
      ],
      "name": "Blade.001"
    },
    {
      "mesh": 1,
      "name": "Blade.001_Sword_0"
    },
    {
      "children": [
        14
      ],
      "matrix": [
        1.0,
        0.0,
        0.0,
        0.0,
        0.0,
        1.0,
        -2.646977960169688e-23,
        0.0,
        0.0,
        2.646977960169688e-23,
        1.0,
        0.0,
        0.0,
        0.0,
        0.1899280548095703,
        1.0
      ],
      "name": "Cable"
    },
    {
      "mesh": 2,
      "name": "Cable_Sword_0"
    },
    {
      "children": [
        16
      ],
      "matrix": [
        1.0,
        0.0,
        0.0,
        0.0,
        0.0,
        1.0,
        -2.646977960169688e-23,
        0.0,
        0.0,
        2.646977960169688e-23,
        1.0,
        0.0,
        -0.00039196014404296875,
        -0.0005437731742858887,
        -3.587270736694336,
        1.0
      ],
      "name": "Strap"
    },
    {
      "mesh": 3,
      "name": "Strap_Sword_0"
    },
    {
      "children": [
        18,
        20,
        22
      ],
      "matrix": [
        100.0,
        0.0,
        0.0,
        0.0,
        0.0,
        -1.629206793918314e-05,
        -99.99999999999868,
        0.0,
        0.0,
        99.99999999999868,
        -1.629206793918314e-05,
        0.0,
        0.0,
        1624.114013671875,
        0.0,
        1.0
      ],
      "name": "sword"
    },
    {
      "children": [
        19
      ],
      "matrix": [
        1.0,
        0.0,
        0.0,
        0.0,
        0.0,
        1.0,
        -2.646977960169688e-23,
        0.0,
        0.0,
        2.646977960169688e-23,
        1.0,
        0.0,
        8.344650268554688e-07,
        0.0,
        -9.24856948852539,
        1.0
      ],
      "name": "Blade.002"
    },
    {
      "mesh": 4,
      "name": "Blade.002_Sword_0"
    },
    {
      "children": [
        21
      ],
      "matrix": [
        1.0,
        0.0,
        0.0,
        0.0,
        0.0,
        1.0,
        -2.646977960169688e-23,
        0.0,
        0.0,
        2.646977960169688e-23,
        1.0,
        0.0,
        0.0,
        0.0,
        0.1899280548095703,
        1.0
      ],
      "name": "Cable.001"
    },
    {
      "mesh": 5,
      "name": "Cable.001_Sword_0"
    },
    {
      "children": [
        23
      ],
      "matrix": [
        1.0,
        0.0,
        0.0,
        0.0,
        0.0,
        1.0,
        -2.646977960169688e-23,
        0.0,
        0.0,
        2.646977960169688e-23,
        1.0,
        0.0,
        -0.0003921985626220703,
        -0.0005437731742858887,
        -3.587270736694336,
        1.0
      ],
      "name": "Strap.001"
    },
    {
      "mesh": 6,
      "name": "Strap.001_Sword_0"
    }
  ],
  "samplers": [
    {
      "magFilter": 9729,
      "minFilter": 9987,
      "wrapS": 10497,
      "wrapT": 10497
    }
  ],
  "scene": 0,
  "scenes": [
    {
      "name": "Sketchfab_Scene",
      "nodes": [
        0
      ]
    }
  ],
  "textures": [
    {
      "sampler": 0,
      "source": 0
    },
    {
      "sampler": 0,
      "source": 1
    },
    {
      "sampler": 0,
      "source": 2
    },
    {
      "sampler": 0,
      "source": 3
    }
  ]
}
